<?xml version="1.0" encoding="UTF-8" standalone="no"?>
<!-- Created with Inkscape (http://www.inkscape.org/) -->
<svg
   xmlns:dc="http://purl.org/dc/elements/1.1/"
   xmlns:cc="http://creativecommons.org/ns#"
   xmlns:rdf="http://www.w3.org/1999/02/22-rdf-syntax-ns#"
   xmlns:svg="http://www.w3.org/2000/svg"
   xmlns="http://www.w3.org/2000/svg"
   xmlns:xlink="http://www.w3.org/1999/xlink"
   xmlns:sodipodi="http://sodipodi.sourceforge.net/DTD/sodipodi-0.dtd"
   xmlns:inkscape="http://www.inkscape.org/namespaces/inkscape"
   width="744.09448819"
   height="1052.3622047"
   id="svg2"
   sodipodi:version="0.32"
   inkscape:version="0.46"
   sodipodi:docname="AwesomeIncApp.svg"
   inkscape:output_extension="org.inkscape.output.svg.inkscape">
  <defs
     id="defs4">
    <inkscape:perspective
       sodipodi:type="inkscape:persp3d"
       inkscape:vp_x="0 : 526.18109 : 1"
       inkscape:vp_y="0 : 1000 : 0"
       inkscape:vp_z="744.09448 : 526.18109 : 1"
       inkscape:persp3d-origin="372.04724 : 350.78739 : 1"
       id="perspective10" />
    <inkscape:perspective
       id="perspective2390"
       inkscape:persp3d-origin="372.04724 : 350.78739 : 1"
       inkscape:vp_z="744.09448 : 526.18109 : 1"
       inkscape:vp_y="0 : 1000 : 0"
       inkscape:vp_x="0 : 526.18109 : 1"
       sodipodi:type="inkscape:persp3d" />
    <inkscape:perspective
       id="perspective3613"
       inkscape:persp3d-origin="372.04724 : 350.78739 : 1"
       inkscape:vp_z="744.09448 : 526.18109 : 1"
       inkscape:vp_y="0 : 1000 : 0"
       inkscape:vp_x="0 : 526.18109 : 1"
       sodipodi:type="inkscape:persp3d" />
    <inkscape:perspective
       id="perspective3639"
       inkscape:persp3d-origin="372.04724 : 350.78739 : 1"
       inkscape:vp_z="744.09448 : 526.18109 : 1"
       inkscape:vp_y="0 : 1000 : 0"
       inkscape:vp_x="0 : 526.18109 : 1"
       sodipodi:type="inkscape:persp3d" />
    <inkscape:perspective
       id="perspective3656"
       inkscape:persp3d-origin="372.04724 : 350.78739 : 1"
       inkscape:vp_z="744.09448 : 526.18109 : 1"
       inkscape:vp_y="0 : 1000 : 0"
       inkscape:vp_x="0 : 526.18109 : 1"
       sodipodi:type="inkscape:persp3d" />
  </defs>
  <sodipodi:namedview
     id="base"
     pagecolor="#ffffff"
     bordercolor="#666666"
     borderopacity="1.0"
     gridtolerance="10000"
     guidetolerance="10"
     objecttolerance="10"
     inkscape:pageopacity="0.0"
     inkscape:pageshadow="2"
     inkscape:zoom="0.35"
     inkscape:cx="520.64103"
     inkscape:cy="2369.346"
     inkscape:document-units="px"
     inkscape:current-layer="layer1"
     showgrid="false"
     inkscape:window-width="1038"
     inkscape:window-height="981"
     inkscape:window-x="1590"
     inkscape:window-y="0" />
  <metadata
     id="metadata7">
    <rdf:RDF>
      <cc:Work
         rdf:about="">
        <dc:format>image/svg+xml</dc:format>
        <dc:type
           rdf:resource="http://purl.org/dc/dcmitype/StillImage" />
      </cc:Work>
    </rdf:RDF>
  </metadata>
  <g
     inkscape:label="Layer 1"
     inkscape:groupmode="layer"
     id="layer1">
    <rect
       style="opacity:1;fill:#000000;fill-opacity:1;fill-rule:evenodd;stroke:#ffffff;stroke-width:0.69999999;stroke-linecap:round;stroke-linejoin:round;stroke-miterlimit:4;stroke-dasharray:none;stroke-opacity:1"
       id="rect3168"
       width="775.79718"
       height="678.82251"
       x="-120.20815"
       y="118.98124" />
    <path
       style="fill:#000000;stroke:#ffffff;stroke-width:18.60000038;stroke-miterlimit:4;stroke-dasharray:none;stroke-opacity:1"
       d="M 188.83709,417.31616 C 187.27702,415.75609 187.08709,413.19048 187.08709,393.67694 C 187.08709,374.2607 187.2848,371.56116 188.83709,369.78232 C 189.79959,368.67935 195.10915,365.78004 200.63611,363.33941 C 206.16308,360.89878 213.7529,356.80136 217.50238,354.23403 C 221.25187,351.6667 225.37665,349.56616 226.66856,349.56616 C 230.15899,349.56616 235.68196,344.14998 237.66117,338.78611 C 238.98097,335.20931 239.50977,329.87981 239.84454,316.78109 C 240.08751,307.2743 239.98353,298.28968 239.61348,296.81527 C 239.24342,295.34086 236.52321,291.86914 233.56856,289.10034 C 228.57828,284.42397 228.03951,283.45703 225.98822,275.49605 C 223.37557,265.35644 223.75582,263.00032 228.93182,257.25705 C 232.16155,253.67336 232.88455,251.97881 233.92196,245.5613 C 234.58921,241.43363 234.88024,236.70863 234.56868,235.0613 C 233.77089,230.84307 236.65151,211.87988 238.52425,209.02172 C 239.9776,206.80362 243.02334,204.44609 257.99662,193.94927 C 265.05111,189.0038 274.43824,186.56776 286.45976,186.56283 C 293.67523,186.55987 296.27003,187.1441 309.58709,191.7701 L 324.58709,196.98072 L 332.89568,205.4364 C 337.46541,210.08703 341.88522,215.20889 342.71748,216.81831 C 343.54974,218.42773 344.71789,224.03355 345.31336,229.27568 C 346.22456,237.2973 346.13641,239.93603 344.75674,245.9365 C 342.74674,254.6784 342.34503,271.31109 344.06621,274.52715 C 344.77481,275.85118 344.90894,277.08376 344.38356,277.44333 C 343.34049,278.15722 341.25361,283.05392 340.65525,286.1915 C 339.70229,291.18857 335.77944,298.52784 333.72805,299.15166 C 330.39736,300.16452 328.3616,302.37943 324.70177,308.97226 C 320.86241,315.88852 316.09015,330.69022 316.08093,335.71077 C 316.07754,337.55624 315.3584,340.41616 314.48284,342.06616 C 311.40527,347.86584 310.04353,355.19929 309.46922,369.06616 C 309.03742,379.49195 309.23375,384.06245 310.23824,386.96859 C 311.746,391.33078 312.89179,392.1869 318.40435,393.0703 C 321.53477,393.57196 323.82886,395.3124 331.15435,402.74327 C 336.06736,407.72696 340.08709,412.41006 340.08709,413.15016 C 340.08709,416.1965 335.9759,416.56616 302.09565,416.56616 C 283.32804,416.56616 266.08596,417.00279 263.77991,417.53645 C 261.47386,418.07011 244.06209,418.63261 225.08709,418.78645 C 193.34116,419.04383 190.44739,418.92646 188.83709,417.31616 z"
       id="path2396" />
    <image
       y="179.56615"
       x="186.08708"
       id="image2392"
       height="241"
       width="168"
       sodipodi:absref="C:\Users\NickSuch\Documents\My Dropbox\Bike KY Shirt\pastedpic_01072011_195736.png"
       xlink:href="C:\Users\NickSuch\Documents\My Dropbox\Bike KY Shirt\pastedpic_01072011_195736.png" />
    <path
       style="fill:#000000;stroke:#ffffff;stroke-opacity:1;stroke-width:13.6;stroke-miterlimit:4;stroke-dasharray:none"
       d="M -63.465522,402.70382 C -63.691033,402.11615 -63.754495,391.09896 -63.606549,378.22118 L -63.337555,354.80703 L -58.837555,353.15346 C -47.630615,349.03537 -38.638762,344.19872 -31.51083,338.45463 C -29.882635,337.14254 -27.320918,336.1767 -25.469038,336.1767 C -22.994496,336.1767 -21.312429,335.1978 -18.166171,331.9267 C -15.917881,329.5892 -13.779046,326.3267 -13.413205,324.6767 C -13.047365,323.0267 -12.337779,319.8767 -11.836349,317.6767 C -11.334918,315.4767 -10.905059,306.22748 -10.881106,297.12287 L -10.837555,280.56903 L -14.087555,277.55296 C -15.875055,275.89412 -18.554025,273.78425 -20.040822,272.86436 C -21.905012,271.71098 -22.942889,270.02551 -23.384565,267.43427 C -23.736827,265.36761 -24.882857,261.17174 -25.931298,258.11012 C -26.979739,255.0485 -27.837555,252.00469 -27.837555,251.3461 C -27.837555,249.02452 -23.309771,243.12915 -21.07885,242.54596 C -19.826347,242.21855 -18.647045,241.00246 -18.431573,239.81611 C -16.808807,230.88145 -15.921354,222.85013 -16.46046,221.97784 C -16.814418,221.40512 -16.503532,215.53616 -15.769603,208.93571 C -14.256319,195.32628 -13.720682,194.28489 -5.389782,188.75515 C -2.384514,186.76037 0.368801,184.65183 0.728695,184.06951 C 2.147672,181.77355 12.91121,175.73691 17.162445,174.85277 C 19.637445,174.33804 26.917017,173.72441 33.339272,173.48915 C 43.674545,173.11054 45.480565,173.29834 49.058775,175.12381 C 51.282245,176.25814 55.678565,177.85748 58.828385,178.67791 C 61.978205,179.49833 65.006935,180.62119 65.558885,181.17314 C 66.110845,181.7251 67.679905,182.1767 69.045695,182.1767 C 70.856165,182.1767 73.819205,184.54561 79.982275,190.92033 C 84.631605,195.72933 89.062095,200.62011 89.827805,201.78873 C 91.330865,204.08269 93.527285,218.30803 93.327255,224.45332 C 93.259645,226.53046 92.664775,229.23046 92.005325,230.45332 C 91.345885,231.67618 90.676625,237.53263 90.518095,243.46765 C 90.359575,249.40267 89.945615,254.71852 89.598195,255.28066 C 89.250775,255.8428 89.759645,257.17912 90.729025,258.25027 C 92.664495,260.38894 92.748935,259.95446 87.730945,273.6767 C 86.323065,277.5267 85.169195,281.4642 85.166805,282.4267 C 85.164405,283.3892 84.824945,284.22801 84.412445,284.29072 C 83.999945,284.35343 82.312445,284.5524 80.662445,284.73288 C 76.938245,285.14023 75.209445,287.38316 70.300195,298.1767 C 64.592505,310.72572 63.868455,313.03502 63.402345,320.1767 C 63.169015,323.7517 62.468095,327.29511 61.844725,328.05094 C 61.221365,328.80677 59.706225,333.53177 58.477745,338.55094 C 55.731885,349.76965 55.372895,366.155 57.701185,373.9952 L 59.239925,379.1767 L 64.201105,379.1767 C 69.148855,379.1767 69.189475,379.20377 79.217555,389.18288 C 84.747965,394.68628 88.996445,399.63628 88.658625,400.18288 C 88.269955,400.81177 74.717985,401.1767 51.752655,401.1767 C 31.792183,401.1767 14.156241,401.59862 12.561668,402.11429 C 8.287721,403.49647 -62.949386,404.04885 -63.465522,402.70382 z"
       id="path3647" />
    <image
       y="169.1767"
       x="-65.837555"
       id="image3615"
       height="237"
       width="164"
       sodipodi:absref="C:\Users\NickSuch\Documents\My Dropbox\Bike KY Shirt\pastedpic_01072011_202318.png"
       xlink:href="C:\Users\NickSuch\Documents\My Dropbox\Bike KY Shirt\pastedpic_01072011_202318.png" />
    <path
       style="fill:#000000;stroke:#ffffff;stroke-opacity:1;stroke-width:10.7;stroke-miterlimit:4;stroke-dasharray:none"
       d="M 411.93414,394.37005 L 411.93414,369.7758 L 416.68414,368.41554 C 419.29664,367.6674 422.10914,366.52042 422.93414,365.86669 C 423.75914,365.21297 426.58941,363.88284 429.22363,362.91085 C 431.85785,361.93886 435.29781,360.0626 436.86799,358.74138 C 438.43816,357.42016 440.14195,356.33917 440.65418,356.33917 C 441.16641,356.33917 442.6424,355.21417 443.93414,353.83917 C 445.59989,352.06606 447.33457,351.33917 449.90025,351.33917 C 452.84821,351.33917 454.27428,350.55259 457.60552,347.08917 C 459.85381,344.75167 461.99265,341.48917 462.35849,339.83917 C 462.72433,338.18917 463.43392,335.03917 463.93535,332.83917 C 464.43678,330.63917 464.86664,321.393 464.89059,312.29212 L 464.93414,295.74507 L 461.14198,292.04212 C 459.05629,290.0055 456.62531,288.33917 455.7398,288.33917 C 454.11354,288.33917 451.93414,283.66457 451.93414,280.17638 C 451.93414,279.15099 451.54092,277.53064 451.06031,276.5756 C 450.5797,275.62056 449.53256,272.83386 448.73333,270.38293 C 447.31145,266.0226 447.34254,265.8343 450.17801,261.63293 C 452.17567,258.67296 453.78557,257.33917 455.36065,257.33917 C 457.47895,257.33917 457.70046,256.77435 458.40007,249.58917 C 458.8151,245.32667 459.13812,240.48917 459.1179,238.83917 C 459.09767,237.18917 459.56155,230.66417 460.14875,224.33917 C 461.22385,212.75861 463.43926,206.33917 466.36071,206.33917 C 467.05561,206.33917 468.43865,205.43917 469.43414,204.33917 C 470.42963,203.23917 471.66426,202.33917 472.17778,202.33917 C 472.69129,202.33917 475.42632,200.31417 478.25561,197.83917 C 481.08491,195.36417 483.91492,193.33917 484.54452,193.33917 C 485.17412,193.33917 486.21308,192.70799 486.85332,191.93655 C 488.30291,190.1899 494.1726,189.32865 508.91165,188.69997 C 520.62093,188.20053 522.71511,188.62849 532.17057,193.45315 C 533.12561,193.94046 534.85618,194.33917 536.01628,194.33917 C 537.17638,194.33917 539.31999,194.98457 540.77985,195.77338 C 542.23971,196.5622 544.55914,197.45357 545.93414,197.7542 C 548.37732,198.28837 553.13752,202.69198 562.31671,212.90955 C 566.66485,217.74957 566.92513,218.38565 568.04544,226.90955 C 569.39712,237.19376 569.33294,244.15372 567.87018,245.91623 C 566.28802,247.82263 565.41165,264.00469 566.79998,265.67752 C 567.6941,266.75487 567.61335,267.36051 566.44647,268.32894 C 564.52486,269.92373 564.52037,271.75088 566.43414,273.33917 C 568.46928,275.02819 568.32315,278.05809 565.97596,282.83917 C 564.8959,285.03917 563.24544,289.46675 562.30828,292.67824 C 560.85152,297.67025 560.80959,298.64723 562.01924,299.41292 C 562.94891,300.0014 561.46222,300.3138 557.68414,300.32386 C 553.39723,300.33527 551.93414,300.69964 551.93414,301.75584 C 551.93414,302.535 551.59664,303.3225 551.18414,303.50584 C 550.0487,304.01048 542.4785,320.21888 540.98679,325.33917 C 540.26574,327.81417 539.472,332.87667 539.22291,336.58917 C 538.89101,341.53596 538.39123,343.33917 537.35208,343.33917 C 536.44193,343.33917 535.93414,344.41806 535.93414,346.35183 C 535.93414,348.00879 535.03414,352.61225 533.93414,356.58173 C 531.58119,365.07262 531.24961,381.03977 533.26426,388.83917 L 534.55581,393.83917 L 539.84912,394.14504 C 545.09753,394.44832 545.23063,394.53815 555.53829,404.73402 C 561.25601,410.38973 565.93414,415.31459 565.93414,415.67815 C 565.93414,416.04171 549.12629,416.33917 528.58336,416.33917 C 508.04044,416.33917 489.92794,416.75986 488.33336,417.27404 C 486.73879,417.78823 468.89664,418.37888 448.68414,418.58661 L 411.93414,418.9643 L 411.93414,394.37005 z"
       id="path3645" />
    <image
       y="188.33917"
       x="411.93414"
       id="image3641"
       height="231"
       width="158"
       sodipodi:absref="C:\Users\NickSuch\Documents\My Dropbox\Bike KY Shirt\pastedpic_01072011_202451.png"
       xlink:href="C:\Users\NickSuch\Documents\My Dropbox\Bike KY Shirt\pastedpic_01072011_202451.png" />
    <path
       style="fill:#000000;stroke:#ffffff;stroke-width:17.5;stroke-miterlimit:4;stroke-dasharray:none;stroke-opacity:1"
       d="M 438.28007,718.18893 L 438.28007,693.57643 L 443.03007,692.21617 C 445.64257,691.46803 448.45507,690.32105 449.28007,689.66732 C 450.10507,689.0136 452.93534,687.68347 455.56956,686.71148 C 458.20378,685.73949 461.64374,683.86323 463.21392,682.54201 C 464.78409,681.22079 466.48788,680.1398 467.00011,680.1398 C 467.51234,680.1398 468.98832,679.0148 470.28007,677.6398 C 471.94582,675.86669 473.6805,675.1398 476.24618,675.1398 C 479.19414,675.1398 480.62021,674.35322 483.95145,670.8898 C 486.19974,668.5523 488.33858,665.2898 488.70442,663.6398 C 489.07026,661.9898 489.77985,658.8398 490.28128,656.6398 C 490.78271,654.4398 491.21257,645.19058 491.23652,636.08597 L 491.28007,619.53213 L 488.03007,616.51606 C 486.24257,614.85722 483.5636,612.74735 482.0768,611.82746 C 480.20136,610.66712 479.18407,609.00424 478.75484,606.39737 C 478.41455,604.3307 477.76981,601.7398 477.32209,600.6398 C 476.87436,599.5398 475.9287,596.70908 475.22063,594.34932 C 474.05393,590.46108 474.1291,589.71106 476.02242,586.34932 C 477.31657,584.05146 479.23528,582.28977 481.06435,581.72 C 483.89511,580.8382 484.04771,580.4871 484.75884,573.22 C 485.16681,569.05089 485.48405,564.2898 485.46383,562.6398 C 485.37275,555.20976 487.71402,536.39778 489.01473,534.10847 C 489.80575,532.71623 491.86077,530.69123 493.58143,529.60847 C 498.77505,526.34027 500.87118,524.81079 505.5302,520.8898 C 507.98092,518.8273 510.44711,517.1398 511.01062,517.1398 C 511.57413,517.1398 512.55901,516.50862 513.19925,515.73718 C 514.64884,513.99053 520.51853,513.12928 535.25758,512.5006 C 546.96686,512.00116 549.06104,512.42912 558.5165,517.25378 C 559.47154,517.74109 561.20211,518.1398 562.36221,518.1398 C 563.52231,518.1398 565.66592,518.75972 567.12578,519.51739 C 568.58564,520.27507 571.08079,521.28757 572.67056,521.76739 C 574.38313,522.28428 579.15822,526.53564 584.38821,532.19985 L 593.21539,541.75991 L 594.3902,550.69985 C 595.79099,561.35941 595.67192,567.96272 594.04354,569.9248 C 593.32537,570.79014 592.77612,575.39319 592.66228,581.5006 C 592.55833,587.07716 592.15023,592.44406 591.75539,593.42705 C 591.31094,594.53355 591.65503,595.89665 592.65879,597.00579 C 594.7893,599.35997 594.70815,601.77342 592.33487,606.6398 C 589.62103,612.20448 587.05454,621.10968 587.68849,622.76174 C 588.09183,623.81283 587.09466,624.1398 583.48581,624.1398 C 579.71995,624.1398 578.55287,624.55452 577.7672,626.17187 C 577.22428,627.28951 574.94939,631.90201 572.71189,636.42187 C 567.77764,646.38932 566.17586,651.66531 565.56727,659.95504 C 565.2606,664.13224 564.62568,666.45368 563.69185,666.81202 C 562.91537,667.10999 562.28007,668.66133 562.28007,670.25945 C 562.28007,671.85757 561.38007,676.41288 560.28007,680.38236 C 557.92712,688.87325 557.59554,704.8404 559.61019,712.6398 L 560.90174,717.6398 L 566.23582,717.94709 C 571.56656,718.25418 571.57657,718.26108 582.17499,728.94709 L 592.78007,739.6398 L 553.78007,740.27796 C 532.33007,740.62895 512.98007,741.17837 510.78007,741.4989 C 508.58007,741.81942 491.36757,742.24362 472.53007,742.44155 L 438.28007,742.80144 L 438.28007,718.18893 z"
       id="path3662" />
    <image
       y="508.1398"
       x="436.28006"
       id="image3658"
       height="237"
       width="164"
       sodipodi:absref="C:\Users\NickSuch\Documents\My Dropbox\Bike KY Shirt\pastedpic_01072011_202640.png"
       xlink:href="C:\Users\NickSuch\Documents\My Dropbox\Bike KY Shirt\pastedpic_01072011_202640.png" />
    <g
       id="g3668"
       transform="translate(-510,-412.85714)"
       inkscape:export-filename="C:\Users\NickSuch\Desktop\AwesomeIncApp\LukeFace.png"
       inkscape:export-xdpi="199.99071"
       inkscape:export-ydpi="199.99071">
      <path
         style="fill:#000000;stroke:#ffffff;stroke-width:17.5;stroke-miterlimit:4;stroke-dasharray:none;stroke-opacity:1"
         d="M 408.28007,1165.3318 L 408.28007,1140.7193 L 413.03007,1139.359 C 415.64257,1138.6109 418.45507,1137.4639 419.28007,1136.8102 C 420.10507,1136.1565 422.93534,1134.8263 425.56956,1133.8543 C 428.20378,1132.8823 431.64374,1131.0061 433.21392,1129.6849 C 434.78409,1128.3636 436.48788,1127.2827 437.00011,1127.2827 C 437.51234,1127.2827 438.98832,1126.1577 440.28007,1124.7827 C 441.94582,1123.0095 443.6805,1122.2827 446.24618,1122.2827 C 449.19414,1122.2827 450.62021,1121.4961 453.95145,1118.0327 C 456.19974,1115.6952 458.33858,1112.4327 458.70442,1110.7827 C 459.07026,1109.1327 459.77985,1105.9827 460.28128,1103.7827 C 460.78271,1101.5827 461.21257,1092.3334 461.23652,1083.2288 L 461.28007,1066.675 L 458.03007,1063.6589 C 456.24257,1062.0001 453.5636,1059.8902 452.0768,1058.9703 C 450.20136,1057.81 449.18407,1056.1471 448.75484,1053.5402 C 448.41455,1051.4736 447.76981,1048.8827 447.32209,1047.7827 C 446.87436,1046.6827 445.9287,1043.8519 445.22063,1041.4922 C 444.05393,1037.6039 444.1291,1036.8539 446.02242,1033.4922 C 447.31657,1031.1943 449.23528,1029.4326 451.06435,1028.8629 C 453.89511,1027.9811 454.04771,1027.63 454.75884,1020.3629 C 455.16681,1016.1937 455.48405,1011.4327 455.46383,1009.7827 C 455.37275,1002.3526 457.71402,983.54064 459.01473,981.25133 C 459.80575,979.85909 461.86077,977.83409 463.58143,976.75133 C 468.77505,973.48313 470.87118,971.95365 475.5302,968.03266 C 477.98092,965.97016 480.44711,964.28266 481.01062,964.28266 C 481.57413,964.28266 482.55901,963.65148 483.19925,962.88004 C 484.64884,961.13339 490.51853,960.27214 505.25758,959.64346 C 516.96686,959.14402 519.06104,959.57198 528.5165,964.39664 C 529.47154,964.88395 531.20211,965.28266 532.36221,965.28266 C 533.52231,965.28266 535.66592,965.90258 537.12578,966.66025 C 538.58564,967.41793 541.08079,968.43043 542.67056,968.91025 C 544.38313,969.42714 549.15822,973.6785 554.38821,979.34271 L 563.21539,988.90277 L 564.3902,997.84271 C 565.79099,1008.5023 565.67192,1015.1056 564.04354,1017.0677 C 563.32537,1017.933 562.77612,1022.536 562.66228,1028.6435 C 562.55833,1034.22 562.15023,1039.5869 561.75539,1040.5699 C 561.31094,1041.6764 561.65503,1043.0395 562.65879,1044.1486 C 564.7893,1046.5028 564.70815,1048.9163 562.33487,1053.7827 C 559.62103,1059.3473 557.05454,1068.2525 557.68849,1069.9046 C 558.09183,1070.9557 557.09466,1071.2827 553.48581,1071.2827 C 549.71995,1071.2827 548.55287,1071.6974 547.7672,1073.3147 C 547.22428,1074.4324 544.94939,1079.0449 542.71189,1083.5647 C 537.77764,1093.5322 536.17586,1098.8082 535.56727,1107.0979 C 535.2606,1111.2751 534.62568,1113.5965 533.69185,1113.9549 C 532.91537,1114.2528 532.28007,1115.8042 532.28007,1117.4023 C 532.28007,1119.0004 531.38007,1123.5557 530.28007,1127.5252 C 527.92712,1136.0161 527.59554,1151.9833 529.61019,1159.7827 L 530.90174,1164.7827 L 536.23582,1165.0899 C 541.56656,1165.397 541.57657,1165.4039 552.17499,1176.0899 L 562.78007,1186.7827 L 523.78007,1187.4208 C 502.33007,1187.7718 482.98007,1188.3212 480.78007,1188.6418 C 478.58007,1188.9623 461.36757,1189.3865 442.53007,1189.5844 L 408.28007,1189.9443 L 408.28007,1165.3318 z"
         id="path3664" />
      <image
         y="955.28265"
         x="406.28006"
         id="image3666"
         height="237"
         width="164"
         sodipodi:absref="C:\Users\NickSuch\Documents\My Dropbox\Bike KY Shirt\pastedpic_01072011_202640.png"
         xlink:href="C:\Users\NickSuch\Documents\My Dropbox\Bike KY Shirt\pastedpic_01072011_202640.png" />
    </g>
    <rect
       style="opacity:1;fill:#000000;fill-opacity:1;fill-rule:evenodd;stroke:none;stroke-width:17.5;stroke-linecap:round;stroke-linejoin:round;stroke-miterlimit:4;stroke-dasharray:none;stroke-opacity:1"
       id="rect3672"
       width="971"
       height="482"
       x="0"
       y="-1429.6378"
       inkscape:export-filename="C:\Users\NickSuch\Desktop\AwesomeIncApp\tv.png"
       inkscape:export-xdpi="90"
       inkscape:export-ydpi="90" />
    <path
       style="fill:#333333;fill-opacity:1;fill-rule:evenodd;stroke:none;stroke-width:17.5;stroke-linecap:round;stroke-linejoin:round;stroke-miterlimit:4;stroke-opacity:1"
       d="M 85.000294,-1504.7764 L 886.00029,-1504.7764 L 971,-1430.4907 L 4.4335937e-06,-1430.4907 L 85.000294,-1504.7764 z"
       id="rect3674"
       sodipodi:nodetypes="ccccc"
       inkscape:export-filename="C:\Users\NickSuch\Desktop\AwesomeIncApp\tv.png"
       inkscape:export-xdpi="90"
       inkscape:export-ydpi="90" />
    <rect
       y="-1395.3521"
       x="69.069351"
       height="413.42856"
       width="832.86127"
       id="rect3682"
       style="opacity:1;fill:#b3b3b3;fill-opacity:1;fill-rule:evenodd;stroke:none;stroke-width:17.5;stroke-linecap:round;stroke-linejoin:round;stroke-miterlimit:4;stroke-dasharray:none;stroke-opacity:1"
       ry="58.816154"
       inkscape:export-filename="C:\Users\NickSuch\Desktop\AwesomeIncApp\tv.png"
       inkscape:export-xdpi="90"
       inkscape:export-ydpi="90" />
    <rect
       ry="58.816154"
       style="opacity:1;fill:#999999;fill-opacity:1;fill-rule:evenodd;stroke:none;stroke-width:17.5;stroke-linecap:round;stroke-linejoin:round;stroke-miterlimit:4;stroke-dasharray:none;stroke-opacity:1"
       id="rect3684"
       width="832.86127"
       height="413.42856"
       x="69.069351"
       y="-1405.3521"
       inkscape:export-filename="C:\Users\NickSuch\Desktop\AwesomeIncApp\tv.png"
       inkscape:export-xdpi="90"
       inkscape:export-ydpi="90" />
    <path
       sodipodi:type="arc"
       style="opacity:1;fill:#666666;fill-opacity:1;fill-rule:evenodd;stroke:none;stroke-width:17.5;stroke-linecap:round;stroke-linejoin:round;stroke-miterlimit:4;stroke-dasharray:none;stroke-opacity:1"
       id="path3706"
       sodipodi:cx="214.15234"
       sodipodi:cy="-794.19666"
       sodipodi:rx="72.73098"
       sodipodi:ry="72.73098"
       d="M 286.88332,-794.19666 A 72.73098,72.73098 0 1 1 141.42136,-794.19666 A 72.73098,72.73098 0 1 1 286.88332,-794.19666 z"
       transform="translate(-863.10369,1171.81)" />
    <rect
       style="opacity:1;fill:#333333;fill-opacity:0.72727272;fill-rule:evenodd;stroke:none;stroke-width:17.5;stroke-linecap:round;stroke-linejoin:round;stroke-miterlimit:4;stroke-dasharray:none;stroke-opacity:1"
       id="rect3712"
       width="226.27419"
       height="173.74623"
       x="-642.97168"
       y="383.45096"
       ry="15" />
    <rect
       ry="15"
       y="199.45094"
       x="-642.97168"
       height="173.74623"
       width="226.27419"
       id="rect3718"
       style="opacity:1;fill:#333333;fill-opacity:0.72727272;fill-rule:evenodd;stroke:none;stroke-width:17.5;stroke-linecap:round;stroke-linejoin:round;stroke-miterlimit:4;stroke-dasharray:none;stroke-opacity:1" />
    <rect
       ry="15"
       y="383.45096"
       x="-880.97168"
       height="173.74623"
       width="226.27419"
       id="rect3720"
       style="opacity:1;fill:#333333;fill-opacity:0.72727272;fill-rule:evenodd;stroke:none;stroke-width:17.5;stroke-linecap:round;stroke-linejoin:round;stroke-miterlimit:4;stroke-dasharray:none;stroke-opacity:1" />
    <rect
       style="opacity:1;fill:#333333;fill-opacity:0.72727272;fill-rule:evenodd;stroke:none;stroke-width:17.5;stroke-linecap:round;stroke-linejoin:round;stroke-miterlimit:4;stroke-dasharray:none;stroke-opacity:1"
       id="rect3722"
       width="226.27419"
       height="173.74623"
       x="-880.97168"
       y="199.45094"
       ry="15" />
    <path
       transform="matrix(0.9167924,0,0,0.9167924,-845.28458,1105.7268)"
       d="M 286.88332,-794.19666 A 72.73098,72.73098 0 1 1 141.42136,-794.19666 A 72.73098,72.73098 0 1 1 286.88332,-794.19666 z"
       sodipodi:ry="72.73098"
       sodipodi:rx="72.73098"
       sodipodi:cy="-794.19666"
       sodipodi:cx="214.15234"
       id="path3724"
       style="opacity:1;fill:#666666;fill-opacity:0.72727272;fill-rule:evenodd;stroke:#666666;stroke-width:24.5;stroke-linecap:round;stroke-linejoin:round;stroke-miterlimit:4;stroke-dasharray:none;stroke-opacity:1"
       sodipodi:type="arc" />
  </g>
</svg>
